<svg width="50" height="51" viewBox="0 0 50 51" fill="none" xmlns="http://www.w3.org/2000/svg">
<g id="Frame">
<path id="Vector" d="M25 50.2823C38.8071 50.2823 50 39.0456 50 25.1844C50 11.3232 38.8071 0.0865021 25 0.0865021C11.1929 0.0865021 0 11.3232 0 25.1844C0 39.0456 11.1929 50.2823 25 50.2823Z" fill="url(#paint0_linear)"/>
<path id="Vector_2" d="M33.9473 37.0864H16.4043V33.606L24.6836 24.7817C25.8203 23.5396 26.6582 22.4556 27.1973 21.5298C27.748 20.604 28.0234 19.7251 28.0234 18.8931C28.0234 17.7563 27.7363 16.8657 27.1621 16.2212C26.5879 15.5649 25.7676 15.2368 24.7012 15.2368C23.5527 15.2368 22.6445 15.6353 21.9766 16.4321C21.3203 17.2173 20.9922 18.2544 20.9922 19.5435H15.8945C15.8945 17.9849 16.2637 16.561 17.002 15.272C17.752 13.9829 18.8066 12.9751 20.166 12.2485C21.5254 11.5103 23.0664 11.1411 24.7891 11.1411C27.4258 11.1411 29.4707 11.7739 30.9238 13.0396C32.3887 14.3052 33.1211 16.0923 33.1211 18.4009C33.1211 19.6665 32.793 20.9556 32.1367 22.2681C31.4805 23.5806 30.3555 25.1099 28.7617 26.856L22.9434 32.9907H33.9473V37.0864Z" fill="#F9F9F9"/>
</g>
<defs>
<linearGradient id="paint0_linear" x1="25" y1="0.0864279" x2="25" y2="50.2823" gradientUnits="userSpaceOnUse">
<stop stop-color="#FF9029"/>
<stop offset="1" stop-color="#F34B14"/>
</linearGradient>
</defs>
</svg>
