<svg width="50" height="51" viewBox="0 0 50 51" fill="none" xmlns="http://www.w3.org/2000/svg">
<g id="Frame">
<path id="Vector" d="M25 50.2779C38.8071 50.2779 50 39.0412 50 25.18C50 11.3188 38.8071 0.0820999 25 0.0820999C11.1929 0.0820999 0 11.3188 0 25.18C0 39.0412 11.1929 50.2779 25 50.2779Z" fill="url(#paint0_linear)"/>
<path id="Vector_2" d="M21.5723 22.0352H24.2793C25.5684 22.0352 26.5234 21.7129 27.1445 21.0684C27.7656 20.4238 28.0762 19.5684 28.0762 18.502C28.0762 17.4707 27.7656 16.668 27.1445 16.0938C26.5352 15.5195 25.6914 15.2324 24.6133 15.2324C23.6406 15.2324 22.8262 15.502 22.1699 16.041C21.5137 16.5684 21.1855 17.2598 21.1855 18.1152H16.1055C16.1055 16.7793 16.4629 15.584 17.1777 14.5293C17.9043 13.4629 18.9121 12.6309 20.2012 12.0332C21.502 11.4355 22.9316 11.1367 24.4902 11.1367C27.1973 11.1367 29.3184 11.7871 30.8535 13.0879C32.3887 14.377 33.1562 16.1582 33.1562 18.4316C33.1562 19.6035 32.7988 20.6816 32.084 21.666C31.3691 22.6504 30.4316 23.4062 29.2715 23.9336C30.7129 24.4492 31.7852 25.2227 32.4883 26.2539C33.2031 27.2852 33.5605 28.5039 33.5605 29.9102C33.5605 32.1836 32.7285 34.0059 31.0645 35.377C29.4121 36.748 27.2207 37.4336 24.4902 37.4336C21.9355 37.4336 19.8438 36.7598 18.2148 35.4121C16.5977 34.0645 15.7891 32.2832 15.7891 30.0684H20.8691C20.8691 31.0293 21.2266 31.8145 21.9414 32.4238C22.668 33.0332 23.5586 33.3379 24.6133 33.3379C25.8203 33.3379 26.7637 33.0215 27.4434 32.3887C28.1348 31.7441 28.4805 30.8945 28.4805 29.8398C28.4805 27.2852 27.0742 26.0078 24.2617 26.0078H21.5723V22.0352Z" fill="#F9F9F9"/>
</g>
<defs>
<linearGradient id="paint0_linear" x1="25" y1="0.0820311" x2="25" y2="50.2779" gradientUnits="userSpaceOnUse">
<stop stop-color="#FF9029"/>
<stop offset="1" stop-color="#F34B14"/>
</linearGradient>
</defs>
</svg>
