<svg width="51" height="50" viewBox="0 0 51 50" fill="none" xmlns="http://www.w3.org/2000/svg">
<g id="Frame">
<path id="Vector" d="M25.1055 50C38.9709 50 50.211 38.8071 50.211 25C50.211 11.1929 38.9709 0 25.1055 0C11.2401 0 0 11.1929 0 25C0 38.8071 11.2401 50 25.1055 50Z" fill="url(#paint0_linear)"/>
<path id="Vector_2" d="M17.2656 23.4141L18.7422 10.4062H33.086V14.6426H22.9082L22.2754 20.1445C23.4824 19.5 24.7656 19.1777 26.125 19.1777C28.5625 19.1777 30.4727 19.9336 31.8555 21.4453C33.2383 22.957 33.9297 25.0723 33.9297 27.791C33.9297 29.4434 33.5781 30.9258 32.875 32.2383C32.1836 33.5391 31.1875 34.5527 29.8867 35.2793C28.586 35.9941 27.0508 36.3516 25.2813 36.3516C23.7344 36.3516 22.2988 36.041 20.9746 35.4199C19.6504 34.7871 18.6016 33.9023 17.8281 32.7656C17.0664 31.6289 16.6621 30.334 16.6153 28.8809H21.6426C21.7481 29.9473 22.1172 30.7793 22.75 31.377C23.3946 31.9629 24.2324 32.2559 25.2637 32.2559C26.4121 32.2559 27.2969 31.8457 27.918 31.0254C28.5391 30.1934 28.8496 29.0215 28.8496 27.5098C28.8496 26.0566 28.4922 24.9434 27.7774 24.1699C27.0625 23.3965 26.0488 23.0098 24.7363 23.0098C23.5293 23.0098 22.5508 23.3262 21.8008 23.959L21.3086 24.416L17.2656 23.4141Z" fill="#F9F9F9"/>
</g>
<defs>
<linearGradient id="paint0_linear" x1="25.1055" y1="0" x2="25.1055" y2="50" gradientUnits="userSpaceOnUse">
<stop stop-color="#FF9029"/>
<stop offset="1" stop-color="#F34B14"/>
</linearGradient>
</defs>
</svg>
