<svg width="50" height="50" viewBox="0 0 50 50" fill="none" xmlns="http://www.w3.org/2000/svg">
<g id="Frame">
<path id="Vector" d="M25 50C38.8071 50 50 38.8071 50 25C50 11.1929 38.8071 0 25 0C11.1929 0 0 11.1929 0 25C0 38.8071 11.1929 50 25 50Z" fill="url(#paint0_linear)"/>
<path id="Vector_2" d="M30.1855 11.1426V15.3262H29.6934C27.3965 15.3613 25.5449 15.959 24.1387 17.1191C22.7441 18.2793 21.9062 19.8906 21.625 21.9531C22.9844 20.5703 24.7012 19.8789 26.7754 19.8789C29.002 19.8789 30.7715 20.6758 32.084 22.2695C33.3965 23.8633 34.0527 25.9609 34.0527 28.5625C34.0527 30.2266 33.6895 31.7324 32.9629 33.0801C32.248 34.4277 31.2285 35.4766 29.9043 36.2266C28.5918 36.9766 27.1035 37.3516 25.4395 37.3516C22.7441 37.3516 20.5645 36.4141 18.9004 34.5391C17.248 32.6641 16.4219 30.1621 16.4219 27.0332V25.2051C16.4219 22.4277 16.9434 19.9785 17.9863 17.8574C19.041 15.7246 20.5469 14.0781 22.5039 12.918C24.4727 11.7461 26.752 11.1543 29.3418 11.1426H30.1855ZM25.2285 23.957C24.4082 23.957 23.6641 24.1738 22.9961 24.6074C22.3281 25.0293 21.8359 25.5918 21.5195 26.2949V27.8418C21.5195 29.541 21.8535 30.8711 22.5215 31.832C23.1895 32.7812 24.127 33.2559 25.334 33.2559C26.4238 33.2559 27.3027 32.8281 27.9707 31.9727C28.6504 31.1055 28.9902 29.9863 28.9902 28.6152C28.9902 27.2207 28.6504 26.0957 27.9707 25.2402C27.291 24.3848 26.377 23.957 25.2285 23.957Z" fill="#F9F9F9"/>
</g>
<defs>
<linearGradient id="paint0_linear" x1="25" y1="0" x2="25" y2="50" gradientUnits="userSpaceOnUse">
<stop stop-color="#FF9029"/>
<stop offset="1" stop-color="#F34B14"/>
</linearGradient>
</defs>
</svg>
